name Walk1.mot
datacolumns 19
datarows 12
range 1.30500000 1.31600000
endheader

                time	   L_ground_force_vx	   L_ground_force_vy	   L_ground_force_vz	   L_ground_force_px	   L_ground_force_py	   L_ground_force_pz	   R_ground_force_vx	   R_ground_force_vy	   R_ground_force_vz	   R_ground_force_px	   R_ground_force_py	   R_ground_force_pz	   L_ground_torque_x	   L_ground_torque_y	   L_ground_torque_z	   R_ground_torque_x	   R_ground_torque_y	   R_ground_torque_z	
          1.30500000	          0.00000000	          0.00000000	          0.00000000	          0.00000000	          0.00000000	          0.00000000	          0.00000000	          0.00000000	          0.00000000	          0.00000000	          0.00000000	          0.00000000	          0.00000000	          0.00000000	          0.00000000	          0.00000000	          0.00000000	          0.00000000	
          1.30600000	          0.00000000	          0.00000000	          0.00000000	          0.00000000	          0.00000000	          0.00000000	          0.00000000	          0.00000000	          0.00000000	          0.00000000	          0.00000000	          0.00000000	          0.00000000	          0.00000000	          0.00000000	          0.00000000	          0.00000000	          0.00000000	
          1.30700000	          0.00000000	          0.00000000	          0.00000000	          0.00000000	          0.00000000	          0.00000000	          0.00000000	          0.00000000	          0.00000000	          0.00000000	          0.00000000	          0.00000000	          0.00000000	          0.00000000	          0.00000000	          0.00000000	          0.00000000	          0.00000000	
          1.30800000	          0.00000000	          0.00000000	          0.00000000	          0.00000000	          0.00000000	          0.00000000	          0.00000000	          0.00000000	          0.00000000	          0.00000000	          0.00000000	          0.00000000	          0.00000000	          0.00000000	          0.00000000	          0.00000000	          0.00000000	          0.00000000	
          1.30900000	          0.00000000	          0.00000000	          0.00000000	          0.00000000	          0.00000000	          0.00000000	          0.00000000	          0.00000000	          0.00000000	          0.00000000	          0.00000000	          0.00000000	          0.00000000	          0.00000000	          0.00000000	          0.00000000	          0.00000000	          0.00000000	
          1.31000000	          0.00000000	          0.00000000	          0.00000000	          0.00000000	          0.00000000	          0.00000000	         -2.88404471	         15.68528820	         -1.06345433	         -0.21605485	          0.00000000	          0.14249362	          0.00000000	          0.00000000	          0.00000000	          0.00000000	          0.28710058	          0.00000000	
          1.31100000	          0.00000000	          0.00000000	          0.00000000	          0.00000000	          0.00000000	          0.00000000	         -3.42471770	         20.46354896	         -1.32129123	         -0.22507858	          0.00000000	          0.13224290	          0.00000000	          0.00000000	          0.00000000	          0.00000000	          0.30724020	          0.00000000	
          1.31200000	          0.00000000	          0.00000000	          0.00000000	          0.00000000	          0.00000000	          0.00000000	         -3.83889827	         26.81992109	         -1.60715866	         -0.23516592	          0.00000000	          0.11780717	          0.00000000	          0.00000000	          0.00000000	          0.00000000	          0.29227796	          0.00000000	
          1.31300000	          0.00000000	          0.00000000	          0.00000000	          0.00000000	          0.00000000	          0.00000000	         -4.25873713	         37.14717437	         -2.10779084	         -0.24494495	          0.00000000	          0.10035197	          0.00000000	          0.00000000	          0.00000000	          0.00000000	          0.25369400	          0.00000000	
          1.31400000	          0.00000000	          0.00000000	          0.00000000	          0.00000000	          0.00000000	          0.00000000	         -4.85787295	         55.04490818	         -3.12040616	         -0.25277383	          0.00000000	          0.08330346	          0.00000000	          0.00000000	          0.00000000	          0.00000000	          0.22852315	          0.00000000	
          1.31500000	          0.00000000	          0.00000000	          0.00000000	          0.00000000	          0.00000000	          0.00000000	         -5.78338369	         84.93853189	         -5.01220964	         -0.25822885	          0.00000000	          0.06997795	          0.00000000	          0.00000000	          0.00000000	          0.00000000	          0.26102168	          0.00000000	
          1.31600000	          0.00000000	          0.00000000	          0.00000000	          0.00000000	          0.00000000	          0.00000000	         -7.05800505	        131.09375846	         -8.19555756	         -0.26185030	          0.00000000	          0.06126073	          0.00000000	          0.00000000	          0.00000000	          0.00000000	          0.37036004	          0.00000000	
